<?xml version="1.0" standalone="no"?>
<!DOCTYPE svg PUBLIC "-//W3C//DTD SVG 20010904//EN"
 "http://www.w3.org/TR/2001/REC-SVG-20010904/DTD/svg10.dtd">
<svg version="1.0" xmlns="http://www.w3.org/2000/svg"
 width="2252.000000pt" height="2169.000000pt" viewBox="0 0 2252.000000 2169.000000"
 preserveAspectRatio="xMidYMid meet">

<g transform="translate(0.000000,2169.000000) scale(0.100000,-0.100000)"
fill="#000000" stroke="none">
<path d="M2745 17062 c3 -15 9 -72 15 -127 6 -55 18 -129 27 -165 13 -51 214
-573 253 -655 5 -11 80 -195 166 -410 86 -214 189 -471 229 -570 40 -99 134
-331 208 -515 74 -184 182 -452 240 -595 58 -143 135 -334 171 -425 37 -91 71
-174 76 -185 5 -11 56 -137 114 -280 57 -143 124 -305 149 -360 47 -105 81
-190 372 -930 24 -60 78 -198 120 -305 43 -107 97 -247 121 -310 25 -63 49
-124 54 -135 5 -11 38 -94 74 -185 35 -91 89 -228 119 -305 30 -77 81 -205
112 -285 154 -391 192 -489 260 -660 174 -441 225 -570 250 -635 70 -187 215
-421 347 -560 154 -163 331 -273 533 -331 95 -28 109 -29 300 -29 118 0 225 5
260 12 33 7 98 20 145 28 155 29 335 94 451 163 68 39 189 140 245 202 170
188 265 390 689 1455 327 822 677 1708 860 2175 20 52 65 167 100 255 83 212
165 418 232 590 82 210 180 458 224 569 l39 99 -41 81 c-228 448 -579 738
-1004 831 -358 78 -664 56 -934 -66 -233 -106 -518 -372 -711 -664 -29 -44
-65 -98 -80 -120 -41 -60 -83 -148 -125 -262 -38 -103 -40 -136 -12 -165 23
-23 35 -51 52 -124 17 -76 14 -139 -13 -239 -31 -115 -174 -225 -293 -225 -46
0 -50 2 -45 20 3 11 8 28 11 38 4 14 -5 23 -37 37 -123 53 -178 144 -178 290
0 76 7 112 39 195 l21 54 -21 61 c-19 54 -99 251 -133 330 -8 17 -22 53 -31
80 -10 28 -24 57 -30 65 -6 8 -17 30 -25 48 -7 17 -16 32 -21 32 -11 0 -11 -3
1 -34 9 -24 8 -26 -21 -26 -27 0 -29 -2 -19 -20 10 -19 8 -20 -34 -20 -36 0
-46 4 -51 20 -3 11 -15 20 -25 20 -12 0 -21 10 -25 30 -4 17 -13 30 -20 30 -7
0 -18 14 -24 30 -5 17 -14 30 -19 30 -5 0 -17 20 -26 45 -10 25 -21 45 -26 45
-5 0 -14 16 -20 35 -6 19 -16 35 -21 35 -5 0 -9 6 -9 14 0 8 -6 21 -13 28 -7
7 -22 31 -33 53 -63 125 -155 297 -176 331 -24 38 -98 187 -98 197 0 3 -27 51
-60 106 -33 56 -60 105 -60 110 0 5 -6 16 -13 23 -7 7 -21 33 -31 58 -10 24
-31 64 -47 88 -16 24 -29 47 -29 52 0 5 -6 13 -13 17 -7 4 -19 23 -26 41 -8
17 -17 32 -22 32 -4 0 -13 16 -20 35 -7 19 -19 35 -25 35 -7 0 -18 16 -25 35
-10 26 -19 35 -35 35 -17 0 -25 9 -34 35 l-12 35 -900 0 -900 0 -15 40 c-14
35 -20 40 -49 40 -24 0 -34 5 -39 20 -3 11 -13 20 -21 20 -7 0 -20 16 -28 35
-8 19 -19 35 -23 35 -5 0 -20 21 -33 48 -14 26 -31 51 -37 55 -7 4 -13 14 -13
21 0 6 -13 30 -28 52 -16 21 -35 55 -42 74 -8 19 -18 40 -23 45 -20 23 -59 97
-210 395 -88 173 -162 317 -166 320 -4 3 -20 27 -36 55 -16 27 -32 54 -37 60
-5 5 -18 22 -31 36 -12 15 -38 46 -57 70 -36 44 -95 102 -129 125 -18 13 -19
12 -16 -14z m3345 -7267 c5 -14 16 -25 24 -25 8 0 18 -9 21 -20 3 -11 15 -25
26 -30 10 -6 19 -17 19 -25 0 -7 9 -16 20 -20 11 -3 27 -19 37 -36 9 -16 23
-29 30 -29 7 0 17 -9 23 -20 6 -11 22 -23 35 -26 14 -3 25 -12 25 -19 0 -11
30 -50 61 -80 5 -5 20 -20 31 -32 12 -13 27 -23 34 -23 7 0 16 -9 19 -20 3
-11 15 -25 26 -30 10 -6 19 -17 19 -25 0 -8 4 -15 10 -15 13 0 70 -57 70 -70
0 -5 7 -10 15 -10 8 0 19 -9 25 -19 5 -11 19 -23 30 -26 11 -3 20 -13 20 -20
0 -8 9 -19 19 -25 11 -5 23 -19 26 -30 3 -11 12 -20 20 -20 7 0 20 -11 29 -25
9 -14 22 -25 30 -25 7 0 18 -11 24 -25 6 -14 18 -25 27 -25 8 0 17 -11 21 -25
3 -13 14 -27 25 -30 10 -4 26 -19 36 -36 9 -16 23 -29 29 -29 7 0 14 -7 18
-15 3 -8 17 -20 31 -27 14 -6 25 -17 25 -24 0 -7 9 -18 19 -24 11 -5 23 -19
26 -30 3 -11 15 -20 26 -20 12 0 23 -10 29 -26 6 -14 19 -28 30 -31 11 -3 22
-14 25 -24 4 -11 15 -24 26 -29 10 -6 19 -17 19 -24 0 -7 10 -17 22 -23 18 -8
12 -11 -43 -25 -35 -9 -56 -17 -46 -17 27 -1 20 -19 -10 -25 -24 -5 -227 -8
-290 -5 -13 1 -21 5 -18 9 3 4 -5 8 -18 8 -86 -1 -251 103 -389 245 -95 97
-238 302 -230 330 1 4 -3 7 -9 7 -5 0 -7 5 -4 10 3 6 1 10 -6 10 -7 0 -10 3
-6 6 3 4 0 19 -9 35 -8 16 -10 29 -5 29 6 0 -5 36 -24 80 -19 44 -30 80 -24
80 5 0 14 -10 20 -22 30 -68 -6 35 -60 171 -57 145 -69 196 -34 144 9 -13 22
-23 29 -23 8 0 14 -5 14 -12 0 -6 2 -9 6 -6 4 5 -26 86 -73 196 -3 6 0 12 6
12 6 0 16 -11 21 -25z"/>
<path d="M15140 14403 c1 -9 30 -92 50 -138 6 -16 20 -53 30 -82 10 -29 25
-67 34 -85 16 -35 61 -148 103 -258 13 -36 31 -78 38 -95 8 -16 57 -140 111
-275 53 -135 103 -258 110 -275 7 -16 70 -174 140 -350 69 -176 137 -345 149
-375 13 -30 130 -323 261 -650 130 -327 245 -613 254 -635 10 -22 48 -116 84
-210 37 -93 71 -179 76 -190 5 -11 19 -45 30 -75 12 -30 27 -68 34 -85 8 -16
66 -163 131 -325 64 -162 123 -308 131 -325 7 -16 101 -250 209 -520 108 -269
220 -539 250 -600 184 -371 440 -613 760 -718 293 -97 688 -71 1014 67 189 80
447 339 560 564 92 182 141 386 141 589 0 105 -15 203 -31 203 -4 0 -30 -25
-58 -55 -55 -61 -135 -189 -261 -420 -104 -189 -154 -259 -258 -362 -172 -170
-336 -241 -602 -262 -215 -17 -392 14 -537 95 -232 129 -409 356 -563 719 -23
55 -52 123 -64 150 -13 28 -40 93 -61 145 -22 52 -42 97 -46 100 -4 3 -22 41
-39 85 -17 44 -42 103 -54 130 -13 28 -31 71 -41 98 -10 26 -22 47 -26 47 -5
0 -9 4 -9 9 0 13 -110 268 -156 361 -20 41 -56 120 -79 175 -24 55 -64 144
-89 197 -25 53 -46 100 -46 103 0 4 -8 19 -18 33 -10 15 -25 43 -32 62 -7 19
-30 71 -50 115 -20 44 -54 123 -75 175 -21 52 -47 107 -57 122 -10 14 -18 29
-18 32 0 3 -13 35 -30 71 -16 36 -30 70 -30 75 0 6 -4 10 -8 10 -4 0 -14 17
-21 37 -13 35 -46 109 -111 248 -57 121 -110 237 -110 240 0 4 -61 136 -120
260 -26 55 -58 123 -70 150 -13 28 -42 92 -66 143 -24 52 -44 95 -44 97 0 3
-40 90 -120 260 -15 33 -40 87 -55 120 -63 138 -96 208 -168 355 -41 85 -97
202 -125 260 -66 140 -98 205 -132 265 -36 64 -70 135 -70 146 0 5 -4 9 -8 9
-4 0 -14 17 -21 38 -7 20 -27 59 -43 87 -17 27 -36 65 -43 84 -10 31 -36 56
-35 34z"/>
<path d="M10339 13568 c5 -13 23 -61 41 -108 18 -47 61 -152 96 -235 34 -82
106 -260 159 -395 52 -135 104 -265 115 -290 11 -25 47 -115 80 -200 33 -85
65 -164 70 -175 5 -11 97 -243 205 -515 108 -272 200 -504 205 -515 5 -11 23
-55 39 -97 17 -43 45 -113 63 -155 17 -43 52 -132 78 -198 60 -153 577 -1440
594 -1480 8 -16 31 -73 51 -125 51 -130 114 -249 188 -352 243 -339 535 -562
848 -645 92 -25 121 -28 254 -28 123 0 165 4 235 23 367 96 702 328 887 615
128 196 191 441 178 682 -4 66 -10 125 -14 133 -12 21 -133 -108 -206 -218
-34 -52 -95 -153 -135 -224 -39 -71 -91 -155 -115 -186 -128 -166 -371 -338
-581 -410 -144 -50 -369 -45 -512 10 -274 106 -563 394 -726 725 -36 72 -169
391 -296 710 -246 615 -279 695 -292 695 -4 0 -8 5 -8 11 0 10 -45 96 -194
369 -19 36 -55 106 -78 155 -24 50 -55 113 -70 140 -48 88 -294 588 -485 985
-31 63 -140 286 -243 495 -228 463 -213 430 -244 545 -34 124 -76 207 -127
248 -49 39 -72 42 -60 10z"/>
<path d="M5097 6413 c-4 -137 -7 -457 -7 -713 0 -511 4 -552 59 -665 17 -33
46 -78 65 -100 l36 -40 -25 57 c-54 120 -55 132 -55 951 l0 757 -33 0 -34 0
-6 -247z"/>
<path d="M8030 6004 l0 -656 -59 -131 c-133 -296 -198 -404 -300 -507 -161
-162 -388 -237 -639 -211 -113 12 -297 73 -397 133 -146 87 -163 93 -250 93
-97 -1 -162 -21 -240 -76 -236 -165 -514 -200 -796 -99 -157 57 -198 82 -288
175 -119 124 -189 224 -298 425 -16 30 -49 90 -73 133 -23 43 -48 97 -56 120
-12 41 -13 39 -16 -68 -1 -60 -2 -139 -1 -174 2 -49 -1 -61 -9 -53 -20 20 -37
14 -31 -10 25 -115 103 -283 174 -379 82 -111 268 -297 352 -353 188 -125 429
-177 686 -147 232 27 424 114 560 255 l45 46 60 -58 c140 -133 293 -206 501
-237 166 -25 347 -14 495 31 83 24 207 88 282 145 143 107 280 321 335 524
l28 100 3 818 3 817 -36 0 -35 0 0 -656z"/>
<path d="M12350 6548 c0 -128 -6 -159 -26 -151 -24 9 -207 -17 -305 -43 -111
-30 -258 -97 -343 -158 -126 -90 -257 -253 -310 -387 -56 -142 -67 -239 -40
-374 21 -109 20 -233 -6 -400 -11 -77 -28 -189 -36 -250 -43 -305 -36 -278
-72 -289 -19 -5 -49 -5 -74 0 -35 8 -49 19 -88 71 -51 65 -58 89 -80 273 -18
156 -30 224 -53 295 l-22 70 -5 -360 c-3 -198 -7 -361 -8 -362 -1 -2 -15 -3
-32 -3 l-30 0 0 -60 0 -60 35 0 c33 0 35 -2 35 -35 0 -33 2 -35 35 -35 34 0
35 -1 35 -40 l0 -40 245 0 245 0 0 644 0 644 26 88 c76 263 252 443 519 528
101 32 248 56 348 56 l77 0 0 245 0 245 -35 0 -35 0 0 -112z m-983 -1420 c-1
-57 -3 -11 -3 102 0 113 2 159 3 103 2 -57 2 -149 0 -205z"/>
<path d="M6587 6439 c-11 -335 -8 -1229 3 -1290 13 -69 81 -207 121 -245 l30
-29 -25 55 c-57 125 -56 109 -56 942 0 750 0 768 -19 768 -11 0 -26 2 -34 5
-11 5 -15 -29 -20 -206z"/>
<path d="M9370 6385 c-142 -30 -239 -75 -358 -165 -159 -119 -275 -283 -322
-451 -30 -111 -24 -234 15 -273 8 -8 20 -50 26 -93 18 -133 80 -262 178 -373
l31 -35 -35 60 c-134 232 -140 491 -17 730 51 98 209 256 309 308 101 53 204
77 325 77 126 0 220 -21 333 -74 129 -61 191 -135 240 -286 21 -66 21 -66 39
-51 12 10 18 2 35 -44 12 -31 21 -63 21 -73 1 -29 37 27 49 75 23 89 5 188
-55 312 -27 55 -58 95 -123 160 -95 96 -175 142 -312 181 -96 28 -287 35 -379
15z"/>
<path d="M13650 6381 c-269 -58 -478 -227 -590 -475 -55 -122 -77 -304 -51
-416 6 -25 11 -60 11 -78 0 -20 4 -31 10 -27 6 4 10 -22 10 -69 0 -42 -4 -76
-9 -76 -4 0 -12 -33 -15 -72 -4 -40 -11 -93 -16 -118 -5 -25 -14 -81 -20 -125
-37 -270 -60 -418 -65 -424 -4 -3 -33 -6 -66 -6 -54 1 -62 4 -96 37 -59 58
-79 109 -97 243 -8 66 -29 212 -45 325 -17 113 -32 221 -34 240 -2 19 -5 -139
-5 -351 -1 -212 -5 -414 -8 -448 -7 -59 -8 -61 -35 -61 -29 0 -29 -1 -29 -60
l0 -60 35 0 c33 0 35 -2 35 -35 0 -33 2 -35 35 -35 34 0 35 -1 35 -40 l0 -40
240 0 240 0 0 613 c0 752 5 799 96 986 89 181 249 305 446 345 98 20 294 21
387 1 82 -17 169 -51 228 -88 48 -31 98 -113 135 -222 28 -86 25 -80 42 -66
11 9 17 4 31 -31 10 -24 23 -74 30 -113 l12 -70 19 80 c27 114 25 231 -6 324
-43 136 -161 280 -278 344 -26 14 -88 38 -137 53 -122 36 -345 44 -475 15z"/>
<path d="M16350 6385 c-146 -30 -279 -96 -405 -202 l-70 -59 -1 -70 c0 -64 -3
-74 -40 -129 -22 -33 -50 -86 -62 -117 l-21 -58 48 0 c49 0 49 0 72 48 14 28
65 89 129 153 89 89 118 112 190 147 109 53 190 72 316 72 178 0 342 -58 463
-164 64 -56 65 -56 90 -39 40 26 50 44 51 94 0 39 -6 54 -40 96 -145 183 -456
281 -720 228z"/>
<path d="M19350 6375 c-7 -9 -15 -41 -18 -71 -3 -38 -9 -54 -19 -54 -8 0 -11
5 -8 10 11 17 -40 30 -79 19 -20 -5 -36 -14 -36 -18 0 -9 -148 -47 -257 -65
l-72 -12 28 28 c42 43 92 116 84 121 -15 9 -115 -23 -186 -59 -243 -122 -432
-354 -482 -592 -19 -88 -19 -151 1 -253 19 -94 20 -236 4 -319 -6 -30 -22
-138 -35 -240 -53 -393 -46 -361 -75 -372 -46 -18 -112 -2 -143 34 -86 98 -93
129 -122 481 -12 143 -21 201 -38 245 l-22 57 -5 -415 c-3 -228 -7 -416 -8
-417 -1 -2 -15 -3 -32 -3 l-30 0 0 -60 0 -60 35 0 c33 0 35 -2 35 -35 0 -33 2
-35 35 -35 34 0 35 -1 35 -40 l0 -40 243 2 242 3 5 665 5 665 23 65 c88 245
257 418 482 495 98 34 282 65 381 65 l80 0 -3 107 c-3 89 -6 108 -19 111 -9 1
-22 -4 -29 -13z m-73 -121 c-3 -3 -12 -4 -19 -1 -8 3 -5 6 6 6 11 1 17 -2 13
-5z m-930 -1046 c-2 -29 -3 -6 -3 52 0 58 1 81 3 53 2 -29 2 -77 0 -105z"/>
<path d="M14785 6245 c59 -88 137 -250 164 -337 45 -148 51 -206 50 -460 -1
-134 -4 -229 -8 -213 -6 25 -9 18 -19 -45 -6 -41 -16 -111 -22 -155 -33 -261
-51 -396 -60 -438 -6 -27 -10 -59 -10 -72 0 -20 -7 -25 -35 -31 -61 -11 -105
4 -146 49 -66 72 -63 61 -110 397 -11 80 -25 177 -31 215 -5 39 -14 104 -18
145 -6 63 -7 45 -10 -105 -1 -99 -5 -299 -9 -445 l-6 -265 -30 -5 c-29 -5 -30
-7 -33 -63 l-3 -57 36 0 c33 0 35 -2 35 -35 0 -33 2 -35 35 -35 34 0 35 -1 35
-40 l0 -40 245 0 245 0 0 651 c0 536 -3 670 -15 755 -31 209 -105 400 -215
558 -73 103 -122 158 -65 71z"/>
<path d="M10454 6225 c90 -131 152 -263 193 -410 31 -114 42 -325 23 -452 -11
-75 -15 -85 -37 -94 -54 -20 -104 -75 -154 -169 -139 -257 -323 -429 -569
-530 -137 -57 -220 -73 -375 -73 -154 0 -209 10 -374 67 -193 67 -302 137
-434 276 -113 120 -187 222 -276 378 -58 102 -76 123 -132 166 l-64 49 -3 -71
c-3 -68 -4 -71 -22 -60 -10 7 -22 9 -25 6 -10 -10 50 -179 96 -270 63 -125
131 -219 264 -359 189 -201 323 -302 495 -375 214 -90 474 -116 711 -70 519
100 932 560 978 1090 28 329 -86 679 -298 916 l-32 35 35 -50z"/>
<path d="M17448 6205 c134 -203 212 -446 212 -655 0 -118 0 -118 -58 -109 -69
11 -1542 11 -1642 -1 -119 -14 -167 -40 -202 -110 -15 -30 -30 -74 -33 -98 -6
-40 -5 -45 31 -77 21 -19 40 -33 42 -30 2 2 21 -17 42 -43 20 -26 47 -56 60
-67 21 -18 21 -17 -4 24 -29 45 -66 126 -66 142 0 5 376 9 940 9 l939 0 8 38
c4 20 8 116 8 212 0 160 -3 184 -29 285 -48 187 -144 379 -248 495 l-39 45 39
-60z"/>
<path d="M15230 5349 c0 -63 -2 -70 -15 -59 -41 34 -27 -40 32 -180 76 -178
155 -288 350 -485 227 -231 407 -336 673 -391 105 -22 350 -25 460 -5 212 38
430 146 590 290 l55 50 -37 37 c-35 36 -38 37 -56 21 -10 -9 -34 -17 -52 -17
-98 0 -312 -35 -410 -67 -170 -55 -368 -65 -525 -26 -158 39 -338 115 -438
185 -116 81 -327 335 -427 514 -69 124 -84 142 -151 178 l-49 27 0 -72z"/>
<path d="M17801 5200 l0 -75 14 38 c12 31 12 43 0 75 l-14 37 0 -75z"/>
</g>
</svg>
